{
  "accessors": [
    {
      "bufferView": 2,
      "componentType": 5126,
      "count": 612,
      "max": [
        0.56480997800827026,
        0.22261999547481537,
        0.052710000425577164
      ],
      "min": [
        -0.56445997953414917,
        -0.11240000277757645,
        -0.079319998621940613
      ],
      "type": "VEC3"
    },
    {
      "bufferView": 2,
      "byteOffset": 7344,
      "componentType": 5126,
      "count": 612,
      "max": [
        0.99027854204177856,
        0.99381363391876221,
        0.99601912498474121
      ],
      "min": [
        -0.99027854204177856,
        -0.9965551495552063,
        -0.99226504564285278
      ],
      "type": "VEC3"
    },
    {
      "bufferView": 0,
      "componentType": 5125,
      "count": 3648,
      "max": [
        611
      ],
      "min": [
        0
      ],
      "type": "SCALAR"
    },
    {
      "bufferView": 2,
      "byteOffset": 14688,
      "componentType": 5126,
      "count": 38480,
      "max": [
        0.82962000370025635,
        1.0333499908447266,
        1.0215100049972534
      ],
      "min": [
        -0.82954001426696777,
        -1.0155400037765503,
        -3.1129500865936279
      ],
      "type": "VEC3"
    },
    {
      "bufferView": 2,
      "byteOffset": 476448,
      "componentType": 5126,
      "count": 38480,
      "max": [
        0.99998444318771362,
        0.99998718500137329,
        0.99993574619293213
      ],
      "min": [
        -0.99998074769973755,
        -0.9999966025352478,
        -0.99998944997787476
      ],
      "type": "VEC3"
    },
    {
      "bufferView": 1,
      "componentType": 5126,
      "count": 38480,
      "max": [
        0.99848002195358276,
        0.99616998434066772
      ],
      "min": [
        0.0015200000489130616,
        0.0015200000489130616
      ],
      "type": "VEC2"
    },
    {
      "bufferView": 3,
      "componentType": 5126,
      "count": 38480,
      "max": [
        0.99940580129623413,
        0.99998098611831665,
        0.99999481439590454,
        1
      ],
      "min": [
        -0.99995017051696777,
        -0.999919593334198,
        -0.99999755620956421,
        -1
      ],
      "type": "VEC4"
    },
    {
      "bufferView": 0,
      "byteOffset": 14592,
      "componentType": 5125,
      "count": 225396,
      "max": [
        38479
      ],
      "min": [
        0
      ],
      "type": "SCALAR"
    },
    {
      "bufferView": 2,
      "byteOffset": 938208,
      "componentType": 5126,
      "count": 1300,
      "max": [
        1.0176000595092773,
        0.45370000600814819,
        1
      ],
      "min": [
        -1.0176000595092773,
        -0.98097002506256104,
        -3.2636001110076904
      ],
      "type": "VEC3"
    },
    {
      "bufferView": 2,
      "byteOffset": 953808,
      "componentType": 5126,
      "count": 1300,
      "max": [
        0.9997977614402771,
        1,
        1
      ],
      "min": [
        -0.9997977614402771,
        -1,
        -1
      ],
      "type": "VEC3"
    },
    {
      "bufferView": 0,
      "byteOffset": 916176,
      "componentType": 5125,
      "count": 7776,
      "max": [
        1299
      ],
      "min": [
        0
      ],
      "type": "SCALAR"
    },
    {
      "bufferView": 2,
      "byteOffset": 969408,
      "componentType": 5126,
      "count": 20757,
      "max": [
        0.86913001537322998,
        1.0364899635314941,
        0.21738000214099884
      ],
      "min": [
        -0.88628000020980835,
        -1.0763000249862671,
        -1.8995000123977661
      ],
      "type": "VEC3"
    },
    {
      "bufferView": 2,
      "byteOffset": 1218492,
      "componentType": 5126,
      "count": 20757,
      "max": [
        0.99981099367141724,
        0.99992072582244873,
        0.99987131357192993
      ],
      "min": [
        -0.99982082843780518,
        -0.99994975328445435,
        -0.99996453523635864
      ],
      "type": "VEC3"
    },
    {
      "bufferView": 1,
      "byteOffset": 307840,
      "componentType": 5126,
      "count": 20757,
      "max": [
        0.99234998226165771,
        0.98931998014450073
      ],
      "min": [
        0.0063299997709691525,
        0.0063299997709691525
      ],
      "type": "VEC2"
    },
    {
      "bufferView": 3,
      "byteOffset": 615680,
      "componentType": 5126,
      "count": 20757,
      "max": [
        0.99992972612380981,
        0.99983090162277222,
        0.99990516901016235,
        1
      ],
      "min": [
        -0.99999946355819702,
        -0.99998825788497925,
        -0.99915891885757446,
        -1
      ],
      "type": "VEC4"
    },
    {
      "bufferView": 0,
      "byteOffset": 947280,
      "componentType": 5125,
      "count": 79830,
      "max": [
        20756
      ],
      "min": [
        0
      ],
      "type": "SCALAR"
    },
    {
      "bufferView": 2,
      "byteOffset": 1467576,
      "componentType": 5126,
      "count": 482,
      "max": [
        0.21407000720500946,
        0.21492999792098999,
        0.21407000720500946
      ],
      "min": [
        -0.21407000720500946,
        -0.21492999792098999,
        -0.21407000720500946
      ],
      "type": "VEC3"
    },
    {
      "bufferView": 2,
      "byteOffset": 1473360,
      "componentType": 5126,
      "count": 482,
      "max": [
        0.99631690979003906,
        0.99999552965164185,
        0.99556303024291992
      ],
      "min": [
        -0.99631690979003906,
        -0.99999552965164185,
        -0.99556303024291992
      ],
      "type": "VEC3"
    },
    {
      "bufferView": 1,
      "byteOffset": 473896,
      "componentType": 5126,
      "count": 482,
      "max": [
        0.99190998077392578,
        0.9756699800491333
      ],
      "min": [
        0.037730000913143158,
        0.027710000053048134
      ],
      "type": "VEC2"
    },
    {
      "bufferView": 3,
      "byteOffset": 947792,
      "componentType": 5126,
      "count": 482,
      "max": [
        0.99985486268997192,
        0.98948097229003906,
        0.76802420616149902,
        1
      ],
      "min": [
        -0.30001312494277954,
        -0.96298825740814209,
        -0.99940228462219238,
        -1
      ],
      "type": "VEC4"
    },
    {
      "bufferView": 0,
      "byteOffset": 1266600,
      "componentType": 5125,
      "count": 2880,
      "max": [
        481
      ],
      "min": [
        0
      ],
      "type": "SCALAR"
    },
    {
      "bufferView": 2,
      "byteOffset": 1479144,
      "componentType": 5126,
      "count": 482,
      "max": [
        1,
        1,
        1
      ],
      "min": [
        -1,
        -1,
        -1
      ],
      "type": "VEC3"
    },
    {
      "bufferView": 2,
      "byteOffset": 1484928,
      "componentType": 5126,
      "count": 482,
      "max": [
        1,
        1,
        1
      ],
      "min": [
        -1,
        -1,
        -1
      ],
      "type": "VEC3"
    },
    {
      "bufferView": 1,
      "byteOffset": 477752,
      "componentType": 5126,
      "count": 482,
      "max": [
        0.99190998077392578,
        0.9756699800491333
      ],
      "min": [
        0.037730000913143158,
        0.027710000053048134
      ],
      "type": "VEC2"
    },
    {
      "bufferView": 3,
      "byteOffset": 955504,
      "componentType": 5126,
      "count": 482,
      "max": [
        1,
        0.99017173051834106,
        0.9810149073600769,
        1
      ],
      "min": [
        0,
        -0.96374034881591797,
        -0.98101639747619629,
        -1
      ],
      "type": "VEC4"
    },
    {
      "bufferView": 0,
      "byteOffset": 1278120,
      "componentType": 5125,
      "count": 2880,
      "max": [
        481
      ],
      "min": [
        0
      ],
      "type": "SCALAR"
    }
  ],
  "asset": {
    "generator": "Sketchfab (OSG glTF plugin)",
    "version": "2.0"
  },
  "bufferViews": [
    {
      "buffer": 0,
      "byteLength": 1289640,
      "byteOffset": 0,
      "name": "ScalarBufferView",
      "target": 34963
    },
    {
      "buffer": 0,
      "byteLength": 481608,
      "byteOffset": 1289640,
      "byteStride": 8,
      "name": "Vec3BufferView",
      "target": 34962
    },
    {
      "buffer": 0,
      "byteLength": 1490712,
      "byteOffset": 1771248,
      "byteStride": 12,
      "name": "Vec4BufferView",
      "target": 34962
    },
    {
      "buffer": 0,
      "byteLength": 963216,
      "byteOffset": 3261960,
      "byteStride": 16,
      "name": "MatrixBufferView",
      "target": 34962
    }
  ],
  "buffers": [
    {
      "byteLength": 4225176,
      "uri": "scene.bin"
    }
  ],
  "extensionsRequired": [
    "KHR_materials_pbrSpecularGlossiness"
  ],
  "extensionsUsed": [
    "KHR_materials_pbrSpecularGlossiness"
  ],
  "images": [
    {
      "uri": "textures/hAIR_MESH_diffuse.png"
    },
    {
      "uri": "textures/Skin_diffuse.png"
    },
    {
      "uri": "textures/Eye_diffuse.png"
    }
  ],
  "materials": [
    {
      "doubleSided": true,
      "emissiveFactor": [
        0,
        0,
        0
      ],
      "extensions": {
        "KHR_materials_pbrSpecularGlossiness": {
          "diffuseFactor": [
            1,
            1,
            1,
            1
          ],
          "diffuseTexture": {
            "index": 2,
            "texCoord": 0
          },
          "glossinessFactor": 0.99000000020000001,
          "specularFactor": [
            0,
            0,
            0
          ]
        }
      },
      "name": "Eye"
    },
    {
      "doubleSided": true,
      "extensions": {
        "KHR_materials_pbrSpecularGlossiness": {
          "diffuseFactor": [
            1,
            1,
            1,
            1
          ],
          "diffuseTexture": {
            "index": 0,
            "texCoord": 0
          },
          "glossinessFactor": 0,
          "specularFactor": [
            0.032202743899999997,
            0.032202743899999997,
            0.032202743899999997
          ]
        }
      },
      "name": "hAIR_MESH"
    },
    {
      "doubleSided": true,
      "emissiveFactor": [
        0,
        0,
        0
      ],
      "extensions": {
        "KHR_materials_pbrSpecularGlossiness": {
          "diffuseFactor": [
            0.56878810980000005,
            0.56878810980000005,
            0.56878810980000005,
            1
          ],
          "glossinessFactor": 0.40000000000000002,
          "specularFactor": [
            0.66025152440000001,
            0.66025152440000001,
            0.66025152440000001
          ]
        }
      },
      "name": "tEETH"
    },
    {
      "doubleSided": true,
      "extensions": {
        "KHR_materials_pbrSpecularGlossiness": {
          "diffuseFactor": [
            1,
            1,
            1,
            1
          ],
          "diffuseTexture": {
            "index": 1,
            "texCoord": 0
          },
          "glossinessFactor": 0,
          "specularFactor": [
            0.087080792700000006,
            0.087080792700000006,
            0.087080792700000006
          ]
        }
      },
      "name": "Skin"
    },
    {
      "doubleSided": true,
      "emissiveFactor": [
        0,
        0,
        0
      ],
      "extensions": {
        "KHR_materials_pbrSpecularGlossiness": {
          "diffuseFactor": [
            0.13163126580000001,
            0.046140870399999999,
            0.0203729146,
            1
          ],
          "glossinessFactor": 0.40000000000000002,
          "specularFactor": [
            0,
            0,
            0
          ]
        }
      },
      "name": "bROWS"
    }
  ],
  "meshes": [
    {
      "name": "GeodeCube.003",
      "primitives": [
        {
          "attributes": {
            "NORMAL": 1,
            "POSITION": 0
          },
          "indices": 2,
          "material": 4,
          "mode": 4
        }
      ]
    },
    {
      "name": "GeodeCube.001",
      "primitives": [
        {
          "attributes": {
            "NORMAL": 4,
            "POSITION": 3,
            "TANGENT": 6,
            "TEXCOORD_0": 5
          },
          "indices": 7,
          "material": 3,
          "mode": 4
        }
      ]
    },
    {
      "name": "GeodeMesh.002",
      "primitives": [
        {
          "attributes": {
            "NORMAL": 9,
            "POSITION": 8
          },
          "indices": 10,
          "material": 2,
          "mode": 4
        }
      ]
    },
    {
      "name": "GeodeCube",
      "primitives": [
        {
          "attributes": {
            "NORMAL": 12,
            "POSITION": 11,
            "TANGENT": 14,
            "TEXCOORD_0": 13
          },
          "indices": 15,
          "material": 1,
          "mode": 4
        }
      ]
    },
    {
      "name": "GeodeMesh.001",
      "primitives": [
        {
          "attributes": {
            "NORMAL": 17,
            "POSITION": 16,
            "TANGENT": 19,
            "TEXCOORD_0": 18
          },
          "indices": 20,
          "material": 0,
          "mode": 4
        }
      ]
    },
    {
      "name": "GeodeMesh",
      "primitives": [
        {
          "attributes": {
            "NORMAL": 22,
            "POSITION": 21,
            "TANGENT": 24,
            "TEXCOORD_0": 23
          },
          "indices": 25,
          "material": 0,
          "mode": 4
        }
      ]
    }
  ],
  "nodes": [
    {
      "children": [
        1
      ],
      "name": "RootNode (gltf orientation matrix)",
      "rotation": [
        -0.70710678118654746,
        -0,
        -0,
        0.70710678118654757
      ]
    },
    {
      "children": [
        2
      ],
      "name": "RootNode (model correction matrix)"
    },
    {
      "children": [
        3,
        5,
        7,
        9,
        11,
        13
      ],
      "name": "Root"
    },
    {
      "children": [
        4
      ],
      "matrix": [
        1,
        0,
        0,
        0,
        0,
        1,
        0,
        0,
        0,
        0,
        1,
        0,
        -0.00017000000000000007,
        -0.72406000000000004,
        3.2685000000000004,
        1
      ],
      "name": "Cube.004"
    },
    {
      "mesh": 0,
      "name": "GeodeCube.003"
    },
    {
      "children": [
        6
      ],
      "matrix": [
        1,
        0,
        0,
        0,
        0,
        1,
        0,
        0,
        0,
        0,
        1,
        0,
        0,
        0,
        3.1428599999999998,
        1
      ],
      "name": "Cube"
    },
    {
      "mesh": 1,
      "name": "GeodeCube.001"
    },
    {
      "children": [
        8
      ],
      "matrix": [
        0.24521000000000004,
        0,
        0,
        0,
        0,
        0.23552000000000001,
        0.068230000000000027,
        0,
        0,
        -0.013740000000000004,
        0.047440000000000003,
        0,
        -0,
        -0.57735000000000003,
        2.5857700000000001,
        1
      ],
      "name": "Cylinder"
    },
    {
      "mesh": 2,
      "name": "GeodeMesh.002"
    },
    {
      "children": [
        10
      ],
      "matrix": [
        1,
        0,
        0,
        0,
        0,
        1,
        0,
        0,
        0,
        0,
        1,
        0,
        0,
        0,
        3.9958199999999997,
        1
      ],
      "name": "Cube.003"
    },
    {
      "mesh": 3,
      "name": "GeodeCube"
    },
    {
      "children": [
        12
      ],
      "matrix": [
        0.78391,
        -0.6194400000000001,
        0.042100000000000012,
        0,
        -0.010090000000000002,
        0.05510000000000001,
        0.99842999999999993,
        0,
        -0.62079000000000018,
        -0.78310999999999997,
        0.036940000000000001,
        0,
        -0.29715000000000003,
        -0.48210000000000003,
        3.0855800000000002,
        1
      ],
      "name": "Sphere.003"
    },
    {
      "mesh": 4,
      "name": "GeodeMesh.001"
    },
    {
      "children": [
        14
      ],
      "matrix": [
        0.21283000000000002,
        0.029990000000000006,
        0.00083000000000000023,
        0,
        -0.0010300000000000003,
        0.0013600000000000003,
        0.21492000000000003,
        0,
        0.029980000000000007,
        -0.21282000000000001,
        0.0014900000000000004,
        0,
        0.29715000000000003,
        -0.48210000000000003,
        3.0855800000000002,
        1
      ],
      "name": "Sphere.004"
    },
    {
      "mesh": 5,
      "name": "GeodeMesh"
    }
  ],
  "samplers": [
    {
      "magFilter": 9729,
      "minFilter": 9987,
      "wrapS": 10497,
      "wrapT": 10497
    }
  ],
  "scene": 0,
  "scenes": [
    {
      "name": "OSG_Scene",
      "nodes": [
        0
      ]
    }
  ],
  "textures": [
    {
      "sampler": 0,
      "source": 0
    },
    {
      "sampler": 0,
      "source": 1
    },
    {
      "sampler": 0,
      "source": 2
    }
  ]
}

